#!OML:ASF H:\ColoradoDance\Project 1\Capture day 1\Session 8\male.ASF
:FULLY-SPECIFIED
:DEGREES
62
upperback 0.422738 -1.423330 -8.029140
rfoot -33.883301 -9.306600
lradius 23.012501
lthumb 4.890510 16.626900
rradius 24.728001
lwrist 14.361100
rhand -39.111198 -0.193911
rhumerus -9.101880 -41.310799 11.318300
lowerneck 0.365365 14.000400 10.911700
lhand -21.501101 -13.296600
ltibia 95.115997
head 4.579520 9.254660 -0.892393
rwrist -11.206700
lfingers 7.125020
rtoes -4.846770
lowerback 3.565930 -0.470535 -8.309440
rfingers 7.125020
lclavicle -0.000000 -0.000000
upperneck 11.949800 18.163200 -0.273961
rfemur -28.660900 -22.659700 52.107201
thorax -1.596820 -0.816470 -3.619370
rclavicle -0.000000 -0.000000
rtibia 46.435299
lfoot 7.456240 6.683870
lhumerus 45.378601 61.014801 39.418999
rthumb -12.110900 -29.823400
root -5.463800 18.007200 5.945470 -274.355011 -74.829102 -78.983101
ltoes 15.533600
lfemur -44.752998 41.043800 5.040050
63
upperback 0.582116 -2.162660 -8.335710
rfoot -31.835199 -11.611700
lradius 24.781300
lthumb 4.569360 16.853901
rradius 24.467600
lwrist 17.816500
rhand -40.798100 -1.361200
rhumerus -10.133200 -43.804001 12.657500
lowerneck 0.682220 14.193000 10.013700
lhand -21.833700 -13.076800
ltibia 103.474998
head 4.382520 9.375890 -0.815445
rwrist -15.073700
lfingers 7.125020
rtoes 0.188670
lowerback 4.738610 -0.893973 -8.321180
rfingers 7.125020
lclavicle 0.000000 0.000000
upperneck 11.680200 18.493000 -0.337553
rfemur -28.069300 -20.030100 50.492599
thorax -2.107150 -1.183660 -3.877960
rclavicle 0.000000 0.000000
rtibia 44.839901
lfoot 11.237600 4.270470
lhumerus 42.395599 59.879200 35.851299
rthumb -13.737100 -30.887699
root -5.593140 18.183399 5.966240 -279.036987 -76.034203 -73.998596
ltoes 16.340799
lfemur -59.097599 45.085400 1.493230
64
upperback 0.937522 -2.183870 -8.578670
rfoot -31.714001 -12.028300
lradius 23.130199
lthumb -0.531023 14.745900
rradius 28.971500
lwrist 13.652800
rhand -43.194698 5.836030
rhumerus -8.794280 -48.859100 15.579800
lowerneck 1.308800 14.383000 10.907100
lhand -27.114901 -15.233200
ltibia 71.928299
head 4.536630 9.584070 -1.758560
rwrist -15.549300
lfingers 7.125020
rtoes -0.128754
lowerback 5.372150 -0.965738 -6.144520
rfingers 7.125020
lclavicle -0.000000 -0.000000
upperneck 11.230500 19.070999 -3.226450
rfemur -31.701200 -18.585899 48.229500
thorax -2.177170 -1.213510 -5.337880
rclavicle -0.000000 -0.000000
rtibia 46.419300
lfoot 11.428400 11.294800
lhumerus 44.760101 58.238300 38.234600
rthumb -16.045799 -23.519501
root -5.533940 18.267401 6.295360 -281.869995 -77.564697 -68.778702
ltoes 20.676100
lfemur -49.262299 32.716702 3.510860
65
upperback 1.459280 -1.917830 -8.280050
rfoot -31.182301 -13.671500
lradius 23.730600
lthumb 2.474010 14.096400
rradius 29.859699
lwrist 12.788500
rhand -45.880600 6.442810
rhumerus -4.852340 -45.425999 13.206700
lowerneck 1.561800 14.284200 12.058800
lhand -24.003500 -15.869000
ltibia 72.675499
head 4.896810 9.553070 -2.000310
rwrist -7.856960
lfingers 7.125020
rtoes 0.010725
lowerback 6.030230 -0.789941 -5.645160
rfingers 7.125020
lclavicle -0.000000 -0.000000
upperneck 12.063400 18.953400 -3.603300
rfemur -31.497299 -16.685101 47.218201
thorax -1.992520 -1.079300 -5.310770
rclavicle -0.000000 -0.000000
rtibia 46.028301
lfoot 17.675900 9.263270
lhumerus 44.090199 55.024601 35.404900
rthumb -18.630800 -22.684999
root -5.373440 18.330500 6.451140 -279.834015 -77.903603 -71.062202
ltoes 17.394400
lfemur -48.890999 34.384899 4.056760
